#N canvas 2 108 1916 970 12;
#N canvas 2 108 1916 945 metro 0;
#X obj 458 131 r tempo;
#X obj 402 241 metro;
#X obj 460 207 /;
#X msg 460 174 60000;
#X obj 388 90 r metro;
#X obj 402 295 counter;
#X obj 755 224 r mvmt;
#X obj 736 528 coll;
#C restore;
#X msg 736 280 clear;
#X msg 785 313 read \$1/metro;
#X obj 780 279 symbol;
#X obj 456 361 counter;
#X floatatom 456 416 5 0 0 0 - - -, f 5;
#X obj 535 152 r setBar;
#X obj 337 178 tgl 15 0 empty empty empty 17 7 0 10 #fcfcfc #000000
#000000 0 1;
#X obj 318 268 bng 15 250 50 0 empty empty empty 17 7 0 10 #fcfcfc
#000000 #000000;
#X obj 1054 241 s setBar;
#X obj 292 225 bng 15 250 50 0 empty empty empty 17 7 0 10 #fcfcfc
#000000 #000000;
#X msg 1049 176 1;
#X floatatom 362 351 5 0 0 0 - - -, f 5;
#X obj 619 335 - 1;
#X obj 845 239 s mvmt;
#X msg 845 212 monroe;
#X obj 294 203 sel 0;
#X obj 434 332 select 0;
#X obj 498 335 - 1;
#X obj 735 559 sel 0;
#X obj 407 478 s bar;
#X obj 326 384 s stateOfMetro;
#X msg 728 587 0;
#X obj 735 633 s changeMetro;
#X obj 320 156 pipe 5;
#X obj 382 166 bng 15 250 50 0 empty empty empty 17 7 0 10 #fcfcfc
#000000 #000000;
#X obj 593 253 print;
#X obj 600 183 int;
#X obj 381 188 s listBar;
#X connect 0 0 2 1;
#X connect 0 0 3 0;
#X connect 1 0 5 0;
#X connect 1 0 15 0;
#X connect 2 0 1 1;
#X connect 3 0 2 0;
#X connect 4 0 31 0;
#X connect 4 0 32 0;
#X connect 5 0 19 0;
#X connect 5 0 24 0;
#X connect 5 0 28 0;
#X connect 6 0 8 0;
#X connect 6 0 10 0;
#X connect 7 0 20 0;
#X connect 7 0 26 0;
#X connect 8 0 7 0;
#X connect 9 0 7 0;
#X connect 10 0 9 0;
#X connect 11 0 12 0;
#X connect 11 0 7 0;
#X connect 11 0 27 0;
#X connect 13 0 34 0;
#X connect 14 0 1 0;
#X connect 14 0 23 0;
#X connect 17 0 5 2;
#X connect 18 0 16 0;
#X connect 20 0 5 4;
#X connect 22 0 21 0;
#X connect 23 0 17 0;
#X connect 24 0 11 0;
#X connect 25 0 11 3;
#X connect 26 0 29 0;
#X connect 29 0 30 0;
#X connect 31 0 14 0;
#X connect 32 0 35 0;
#X connect 34 0 33 0;
#X connect 34 0 7 0;
#X connect 34 0 25 0;
#X restore 504 344 pd metro;
#X floatatom 64 89 11 0 0 1 Tempo setTempo tempo, f 11;
#X obj 3 408 bng 113 250 50 0 empty vMetro1 empty 17 7 0 10 #fcfcfc
#ff0000 #000000;
#N canvas 2 108 1916 945 utilities 1;
#X msg 46 151 \; pd dsp 1;
#X obj 52 41 loadbang;
#X obj 155 163 s setTempo;
#X msg 155 134 92;
#X msg 445 108 names monroe;
#X obj 441 162 s mvmtList;
#X obj 694 112 key;
#X obj 682 162 sel 32;
#X obj 675 276 s changeMetro;
#X obj 667 235 bng 15 250 50 0 empty empty empty 17 7 0 10 #fcfcfc
#000000 #000000;
#X connect 1 0 0 0;
#X connect 1 0 3 0;
#X connect 1 0 4 0;
#X connect 3 0 2 0;
#X connect 4 0 5 0;
#X connect 6 0 7 0;
#X connect 7 0 9 0;
#X connect 9 0 8 0;
#X restore 504 304 pd utilities;
#X obj 306 205 tgl 100 0 metro changeMetro Play\ mouvement -15 -15
0 20 #fcfcfc #000000 #000000 0 1;
#X obj 116 408 bng 113 250 50 0 empty vMetro2 empty 17 7 0 10 #fcfcfc
#000000 #000000;
#X obj 230 408 bng 113 250 50 0 empty vMetro3 empty 17 7 0 10 #fcfcfc
#000000 #000000;
#X obj 343 408 bng 113 250 50 0 empty vMetro4 empty 17 7 0 10 #fcfcfc
#000000 #000000;
#N canvas 2 90 1916 988 visualMetro 0;
#X obj 243 151 r stateOfMetro;
#X obj 243 184 sel 0 1 2 3;
#X obj 229 239 s vMetro1;
#X obj 240 249 s vMetro2;
#X obj 249 257 s vMetro3;
#X obj 261 262 s vMetro4;
#X connect 0 0 1 0;
#X connect 1 0 2 0;
#X connect 1 1 3 0;
#X connect 1 2 4 0;
#X connect 1 3 5 0;
#X restore 504 364 pd visualMetro;
#N canvas 2 90 1916 963 audioMetro 0;
#X obj 153 60 r stateOfMetro;
#X obj 153 93 sel 0;
#X obj 128 182 osc~ 360;
#X obj 148 361 s~ mixerClick;
#X obj 121 239 *~, f 2;
#X obj 318 77 bng 15 250 50 0 empty empty empty 17 7 0 10 #fcfcfc #000000
#000000;
#X obj 216 184 osc~ 270;
#X obj 221 233 *~, f 2;
#X obj 318 91 pipe 100;
#X obj 81 204 line;
#X msg 315 116 0 20;
#X obj 272 209 line;
#X msg 121 124 1 50;
#X msg 174 127 1 50;
#X connect 0 0 1 0;
#X connect 0 0 5 0;
#X connect 1 0 12 0;
#X connect 1 1 13 0;
#X connect 2 0 4 0;
#X connect 4 0 3 0;
#X connect 5 0 8 0;
#X connect 6 0 7 0;
#X connect 7 0 3 0;
#X connect 8 0 10 0;
#X connect 9 0 4 1;
#X connect 10 0 9 0;
#X connect 10 0 11 0;
#X connect 11 0 7 1;
#X connect 12 0 9 0;
#X connect 13 0 11 0;
#X restore 504 385 pd audioMetro;
#X dropdown 63 151 6 1 0 1 mvmt mvmtList mvmt, f 6;
#N canvas 2 90 1916 963 audioOutput 0;
#X obj 144 61 r~ mixerClick;
#X obj 170 298 dac~ 1 2;
#X obj 143 176 *~ 1;
#X obj 332 63 hsl 128 15 0 1 0 0 empty empty empty -2 -8 0 10 #fcfcfc
#000000 #000000 7000 1;
#X connect 0 0 2 0;
#X connect 2 0 1 0;
#X connect 2 0 1 1;
#X connect 3 0 2 1;
#X restore 504 26 pd audioOutput;
#N canvas 2 108 1916 945 referenceBar 0;
#X obj 259 282 textfile;
#X obj 314 27 r mvmt;
#X msg 331 157 read monroe/referenceBar;
#X obj 453 97 symbol;
#X msg 265 122 clear;
#X msg 206 192 rewind;
#X msg 453 125 set read \$1/referenceBar;
#X obj 330 76 bng 15 250 50 0 empty empty empty 17 7 0 10 #fcfcfc #000000
#000000;
#X obj 373 231 bng 15 250 50 0 empty empty empty 17 7 0 10 #fcfcfc
#000000 #000000;
#X obj 329 101 pipe 2;
#X obj 277 166 pipe 2;
#X obj 342 199 pipe 2;
#X obj 256 317 prepend names;
#X obj 250 351 s listBar;
#X connect 0 0 12 0;
#X connect 1 0 3 0;
#X connect 1 0 4 0;
#X connect 1 0 7 0;
#X connect 2 0 0 0;
#X connect 3 0 6 0;
#X connect 4 0 0 0;
#X connect 5 0 0 0;
#X connect 6 0 2 0;
#X connect 7 0 9 0;
#X connect 8 0 0 0;
#X connect 9 0 2 0;
#X connect 9 0 10 0;
#X connect 10 0 5 0;
#X connect 10 0 11 0;
#X connect 11 0 8 0;
#X connect 12 0 13 0;
#X restore 504 324 pd referenceBar;
#X dropdown 63 185 6 1 0 0 begin listBar setBar, f 6;
#X floatatom 53 279 5 0 0 1 Bar bar -, f 5;
