#N canvas 2 90 1916 963 12;
#N canvas 2 108 1916 945 metro 0;
#X obj 458 131 r tempo;
#X obj 402 241 metro;
#X obj 460 207 /;
#X msg 460 174 60000;
#X obj 388 90 r metro;
#X obj 402 295 counter;
#X obj 755 224 r mvmt;
#X obj 736 528 coll;
#C restore;
#X msg 736 280 clear;
#X msg 785 313 read \$1/metro;
#X obj 780 279 symbol;
#X obj 456 361 counter;
#X floatatom 456 416 5 0 0 0 - - -, f 5;
#X obj 535 152 r setBar;
#X obj 337 178 tgl 15 0 empty empty empty 17 7 0 10 #fcfcfc #000000
#000000 0 1;
#X obj 318 268 bng 15 250 50 0 empty empty empty 17 7 0 10 #fcfcfc
#000000 #000000;
#X obj 1054 241 s setBar;
#X obj 292 225 bng 15 250 50 0 empty empty empty 17 7 0 10 #fcfcfc
#000000 #000000;
#X msg 1049 176 1;
#X floatatom 362 351 5 0 0 0 - - -, f 5;
#X obj 619 335 - 1;
#X obj 845 239 s mvmt;
#X msg 845 212 monroe;
#X obj 294 203 sel 0;
#X obj 434 332 select 0;
#X obj 498 335 - 1;
#X obj 735 559 sel 0;
#X obj 407 478 s bar;
#X obj 326 384 s stateOfMetro;
#X msg 728 587 0;
#X obj 735 633 s changeMetro;
#X obj 320 156 pipe 5;
#X obj 382 166 bng 15 250 50 0 empty empty empty 17 7 0 10 #fcfcfc
#000000 #000000;
#X obj 600 183 int;
#X obj 381 188 s listBar;
#X connect 0 0 2 1;
#X connect 0 0 3 0;
#X connect 1 0 5 0;
#X connect 1 0 15 0;
#X connect 2 0 1 1;
#X connect 3 0 2 0;
#X connect 4 0 31 0;
#X connect 4 0 32 0;
#X connect 5 0 19 0;
#X connect 5 0 24 0;
#X connect 5 0 28 0;
#X connect 6 0 8 0;
#X connect 6 0 10 0;
#X connect 7 0 20 0;
#X connect 7 0 26 0;
#X connect 8 0 7 0;
#X connect 9 0 7 0;
#X connect 10 0 9 0;
#X connect 11 0 12 0;
#X connect 11 0 7 0;
#X connect 11 0 27 0;
#X connect 13 0 33 0;
#X connect 14 0 1 0;
#X connect 14 0 23 0;
#X connect 17 0 5 2;
#X connect 18 0 16 0;
#X connect 20 0 5 4;
#X connect 22 0 21 0;
#X connect 23 0 17 0;
#X connect 24 0 11 0;
#X connect 25 0 11 3;
#X connect 26 0 29 0;
#X connect 29 0 30 0;
#X connect 31 0 14 0;
#X connect 32 0 34 0;
#X connect 33 0 7 0;
#X connect 33 0 25 0;
#X restore 502 245 pd metro;
#X floatatom 4 6 28 0 0 1 Tempo setTempo tempo, f 28;
#X obj 1 308 bng 113 250 50 0 None vMetro1 empty 17 7 0 10 #fcfcfc
#ff0000 #000000;
#N canvas 2 90 1916 963 utilities 0;
#X msg 46 151 \; pd dsp 1;
#X obj 52 41 loadbang;
#X obj 155 163 s setTempo;
#X msg 155 134 92;
#X msg 445 108 names monroe;
#X obj 441 162 s mvmtList;
#X obj 582 119 pipe 2;
#X obj 583 147 bng 15 250 50 0 empty empty empty 17 7 0 10 #fcfcfc
#000000 #000000;
#X connect 1 0 0 0;
#X connect 1 0 3 0;
#X connect 1 0 4 0;
#X connect 1 0 6 0;
#X connect 3 0 2 0;
#X connect 4 0 5 0;
#X connect 6 0 7 0;
#X connect 7 0 5 0;
#X restore 502 205 pd utilities;
#X obj 204 154 tgl 100 0 metro changeMetro Play\ mouvement -15 -15
0 20 #fcfcfc #000000 #000000 0 1;
#X obj 114 308 bng 113 250 50 0 None vMetro2 empty 17 7 0 10 #fcfcfc
#000000 #000000;
#X obj 228 308 bng 113 250 50 0 None vMetro3 empty 17 7 0 10 #fcfcfc
#000000 #000000;
#X obj 341 308 bng 113 250 50 0 None vMetro4 empty 17 7 0 10 #fcfcfc
#000000 #000000;
#N canvas 2 90 1916 988 visualMetro 0;
#X obj 243 151 r stateOfMetro;
#X obj 243 184 sel 0 1 2 3;
#X obj 229 239 s vMetro1;
#X obj 240 249 s vMetro2;
#X obj 249 257 s vMetro3;
#X obj 261 262 s vMetro4;
#X connect 0 0 1 0;
#X connect 1 0 2 0;
#X connect 1 1 3 0;
#X connect 1 2 4 0;
#X connect 1 3 5 0;
#X restore 502 265 pd visualMetro;
#N canvas 2 90 1916 963 audioMetro 0;
#X obj 153 60 r stateOfMetro;
#X obj 153 93 sel 0;
#X obj 128 182 osc~ 360;
#X obj 148 361 s~ mixerClick;
#X obj 121 239 *~, f 2;
#X obj 318 77 bng 15 250 50 0 empty empty empty 17 7 0 10 #fcfcfc #000000
#000000;
#X obj 216 184 osc~ 270;
#X obj 221 233 *~, f 2;
#X obj 318 91 pipe 100;
#X obj 81 204 line;
#X msg 315 116 0 20;
#X obj 272 209 line;
#X msg 121 124 1 50;
#X msg 174 127 1 50;
#X connect 0 0 1 0;
#X connect 0 0 5 0;
#X connect 1 0 12 0;
#X connect 1 1 13 0;
#X connect 2 0 4 0;
#X connect 4 0 3 0;
#X connect 5 0 8 0;
#X connect 6 0 7 0;
#X connect 7 0 3 0;
#X connect 8 0 10 0;
#X connect 9 0 4 1;
#X connect 10 0 9 0;
#X connect 10 0 11 0;
#X connect 11 0 7 1;
#X connect 12 0 9 0;
#X connect 13 0 11 0;
#X restore 502 285 pd audioMetro;
#X dropdown 4 26 26 1 0 1 mouvement mvmtList mvmt, f 26;
#N canvas 2 108 1916 970 audioOutput 0;
#X obj 105 105 vsl 199 194 0 1 0 0 mixerClickVolume mixerClickVolumeSet
empty 0 -9 0 10 #fcfcfc #000000 #000000 8200 1;
#N canvas 2 126 1916 927 Click 0;
#X obj 388 115 r~ mixerClick;
#X obj 387 230 *~ 1;
#X obj 397 138 r mixerClickVolume;
#X obj 381 267 s~ mixerClickMixed;
#X obj 686 125 loadbang;
#X msg 687 145 1, f 5;
#X obj 686 165 s mixerClickVolumeSet;
#X connect 0 0 1 0;
#X connect 1 0 3 0;
#X connect 2 0 1 1;
#X connect 4 0 5 0;
#X connect 5 0 6 0;
#X restore 168 66 pd Click;
#X obj 104 334 r~ mixerClickMixed, f 28;
#X obj 105 484 dac~ 1 2 3 4, f 57;
#X text 179 311 Click;
#X connect 2 0 3 0;
#X connect 2 0 3 1;
#X restore 503 5 pd audioOutput;
#N canvas 2 108 1916 945 referenceBar 0;
#X obj 259 282 textfile;
#X obj 314 27 r mvmt;
#X msg 331 157 read monroe/referenceBar;
#X obj 453 97 symbol;
#X msg 265 122 clear;
#X msg 206 192 rewind;
#X msg 453 125 set read \$1/referenceBar;
#X obj 330 76 bng 15 250 50 0 empty empty empty 17 7 0 10 #fcfcfc #000000
#000000;
#X obj 373 231 bng 15 250 50 0 empty empty empty 17 7 0 10 #fcfcfc
#000000 #000000;
#X obj 329 101 pipe 2;
#X obj 277 166 pipe 2;
#X obj 342 199 pipe 2;
#X obj 256 317 prepend names;
#X obj 250 351 s listBar;
#X connect 0 0 12 0;
#X connect 1 0 3 0;
#X connect 1 0 4 0;
#X connect 1 0 7 0;
#X connect 2 0 0 0;
#X connect 3 0 6 0;
#X connect 4 0 0 0;
#X connect 5 0 0 0;
#X connect 6 0 2 0;
#X connect 7 0 9 0;
#X connect 8 0 0 0;
#X connect 9 0 2 0;
#X connect 9 0 10 0;
#X connect 10 0 5 0;
#X connect 10 0 11 0;
#X connect 11 0 8 0;
#X connect 12 0 13 0;
#X restore 502 225 pd referenceBar;
#X dropdown 4 45 26 1 0 1 - listBar setBar, f 26;
#X floatatom 4 65 28 0 0 1 - bar None, f 28;
#N canvas 2 126 1916 952 control 0;
#X obj 290 322 s changeMetro;
#N canvas 2 144 1916 934 keyboard 0;
#X obj 219 105 inlet;
#X obj 258 105 inlet;
#X obj 228 173 key;
#X obj 216 223 sel 32;
#X obj 213 244 bng 25 250 50 0 empty empty empty 17 7 0 10 #fcfcfc
#000000 #000000;
#X obj 215 291 gate;
#X obj 195 356 outlet;
#X connect 0 0 5 0;
#X connect 1 0 3 1;
#X connect 2 0 3 0;
#X connect 3 0 4 0;
#X connect 4 0 5 1;
#X connect 5 0 6 0;
#X restore 256 159 pd keyboard;
#X obj 256 112 tgl 47 0 empty empty empty 17 7 0 10 #fcfcfc #000000
#000000 1 1;
#X msg 242 68 1;
#X obj 242 47 loadbang;
#X floatatom 305 137 5 0 0 0 - - -, f 5;
#X msg 273 68 32;
#X connect 1 0 0 0;
#X connect 2 0 1 0;
#X connect 3 0 2 0;
#X connect 4 0 3 0;
#X connect 4 0 6 0;
#X connect 5 0 1 1;
#X connect 6 0 5 0;
#X restore 503 25 pd control;
#N canvas 2 144 1916 909 config 0;
#X restore 503 310 pd config;
#X text 205 45 Begin at;
#X text 205 66 current bar;
